<svg version="1.1" id="Layer_1" xmlns="http://www.w3.org/2000/svg" xmlns:xlink="http://www.w3.org/1999/xlink" x="0px" y="0px"
	 viewBox="0 0 512 512" style="enable-background:new 0 0 512 512;" xml:space="preserve">
<path style="fill:#FFFFFF;" class="st0" d="M256,0C115.2,0,0,115.2,0,256s115.2,256,256,256s256-115.2,256-256S396.8,0,256,0z M294.4,273.6
	c-1.6,20.8-9.6,41.6-24,56c-38.4,36.8-105.6,36.8-144-1.6C88,289.6,88,222.4,128,184c28.8-28.8,70.4-35.2,107.2-20.8l14.4,8l16,11.2
	L240,208l-9.6-6.4c-22.4-14.4-54.4-11.2-75.2,9.6c-24,24-25.6,67.2,0,92.8c24,25.6,67.2,25.6,89.6,0c6.4-6.4,12.8-16,14.4-25.6v-3.2
	h-57.6v-32h91.2l1.6,8V273.6z M414.4,270.4h-28.8v28.8h-28.8v-28.8H328v-28.8h28.8v-28.8h28.8v28.8h28.8V270.4z"/>
</svg>
