<svg version="1.1" id="Capa_1" xmlns="http://www.w3.org/2000/svg" xmlns:xlink="http://www.w3.org/1999/xlink" x="0px" y="0px"
	 viewBox="0 0 512 512" style="enable-background:new 0 0 512 512;" xml:space="preserve">
<path style="fill:#FFFFFF;" class="st0" d="M256,0C114.6,0,0,114.6,0,256s114.6,256,256,256s256-114.6,256-256S397.4,0,256,0z M402.7,368.3l-44.9,0.6
	c0,0-9.6,1.9-22.3-6.8c-16.8-11.5-32.6-41.5-45-37.6c-12.5,4-12.1,30.9-12.1,30.9s0.1,5.8-2.8,8.8c-3.1,3.3-9.2,4-9.2,4h-20.1
	c0,0-44.3,2.7-83.4-38C120.4,286,82.8,198,82.8,198s-2.2-5.8,0.2-8.6c2.6-3.1,9.9-3.3,9.9-3.3l48-0.3c0,0,4.5,0.8,7.8,3.1
	c2.7,2,4.2,5.6,4.2,5.6s7.8,19.6,18,37.4c20.1,34.7,29.4,42.3,36.2,38.5c9.9-5.4,7-49,7-49s0.2-15.8-5-22.9
	c-4-5.5-11.6-7.1-14.9-7.5c-2.7-0.4,1.7-6.6,7.5-9.5c8.6-4.2,23.9-4.5,41.9-4.3c14.1,0.1,18.1,1,23.6,2.3
	c16.6,4,10.9,19.4,10.9,56.5c0,11.9-2.1,28.5,6.4,34.1c3.7,2.4,12.7,0.4,35.2-37.9c10.7-18.1,18.7-39.4,18.7-39.4s1.7-3.8,4.5-5.4
	c2.8-1.7,6.5-1.1,6.5-1.1l50.5-0.3c0,0,15.2-1.8,17.6,5c2.6,7.2-5.7,24-26.3,51.5c-33.9,45.2-37.7,41-9.5,67.1
	c26.9,25,32.5,37.1,33.4,38.6C426.2,366.8,402.7,368.3,402.7,368.3z"/>
</svg>
