<?xml version="1.0" encoding="utf-8"?>
<!-- Generator: Adobe Illustrator 21.0.2, SVG Export Plug-In . SVG Version: 6.00 Build 0)  -->
<svg version="1.1" id="Layer_1" xmlns="http://www.w3.org/2000/svg" xmlns:xlink="http://www.w3.org/1999/xlink" x="0px" y="0px"
	 viewBox="0 0 512 372.4" style="enable-background:new 0 0 512 372.4;" xml:space="preserve">
<style type="text/css">
	.st0{fill:#47A2DA;}
</style>
<g>
	<g>
		<g>
			<path class="st0" d="M500.4,0H11.6C5.2,0,0,5.2,0,11.6v349.1c0,6.4,5.2,11.6,11.6,11.6h488.7c6.4,0,11.6-5.2,11.6-11.6V11.6
				C512,5.2,506.8,0,500.4,0z M488.7,320.9L344.6,176.8l-16.5,16.5L484,349.1H28l155.8-155.8l-16.5-16.5L23.3,320.9V23.3h465.5
				V320.9z"/>
		</g>
	</g>
	<g>
		<g>
			<path class="st0" d="M465.2,23.3L256,232.5L46.8,23.3H23.3v9.4l224.5,224.5c4.5,4.5,11.9,4.5,16.5,0L488.7,32.7v-9.4H465.2z"/>
		</g>
	</g>
</g>
</svg>
