<?xml version="1.0" encoding="utf-8"?>
<!-- Generator: Adobe Illustrator 21.0.2, SVG Export Plug-In . SVG Version: 6.00 Build 0)  -->
<svg version="1.1" id="Layer_1" xmlns="http://www.w3.org/2000/svg" xmlns:xlink="http://www.w3.org/1999/xlink" x="0px" y="0px"
	 viewBox="0 0 636 502" style="enable-background:new 0 0 636 502;" xml:space="preserve">
<style type="text/css">
	.st0{font-family:'ArialMT';}
	.st1{font-size:12px;}
</style>
<g>
	<line x1="230.5" y1="11.5" x2="230.5" y2="497"/>
	<g>
		<circle cx="230.5" cy="32" r="5"/>
		<text transform="matrix(1 0 0 1 242 35)" class="st0 st1">Пр-т Просвещения</text>
	</g>
	<g>
		<circle cx="230.5" cy="11.5" r="5"/>
		<text transform="matrix(1 0 0 1 242 14.5)" class="st0 st1">Парнас</text>
	</g>
	<g>
		<circle cx="230.5" cy="497" r="5"/>
		<text transform="matrix(1 0 0 1 242 500)" class="st0 st1">Купчино</text>
	</g>
	<g>
		<circle cx="230.5" cy="476.5" r="5"/>
		<text transform="matrix(1 0 0 1 242 479.5)" class="st0 st1">Звёздная</text>
	</g>
	<g>
		<circle cx="230.5" cy="456.5" r="5"/>
		<text transform="matrix(1 0 0 1 242 459.5)" class="st0 st1">Московская</text>
	</g>
	<g>
		<circle cx="230.5" cy="436" r="5"/>
		<text transform="matrix(1 0 0 1 242 439)" class="st0 st1">Парк Победы</text>
	</g>
	<g>
		<circle cx="230.5" cy="416" r="5"/>
		<text transform="matrix(1 0 0 1 242 419)" class="st0 st1">Электросила</text>
	</g>
	<g>
		<circle cx="230.5" cy="396" r="5"/>
		<text transform="matrix(1 0 0 1 242 399)" class="st0 st1">Московские ворота</text>
	</g>
	<g>
		<circle cx="230.5" cy="329" r="5"/>
	</g>
	<g>
		<circle cx="230.5" cy="376" r="5"/>
		<text transform="matrix(1 0 0 1 242 379)" class="st0 st1">Фрунзенская</text>
	</g>
	<circle cx="230.5" cy="329" r="5"/>
	<g>
		<circle cx="230.5" cy="92" r="5"/>
		<text transform="matrix(1 0 0 1 242 95)" class="st0 st1">Пионерская</text>
	</g>
	<g>
		<circle cx="230.5" cy="72" r="5"/>
		<text transform="matrix(1 0 0 1 242 75)" class="st0 st1">Удельная</text>
	</g>
	<g>
		<circle cx="230.5" cy="112" r="5"/>
		<text transform="matrix(1 0 0 1 242 115)" class="st0 st1">Чёрная речка</text>
	</g>
	<g>
		<circle cx="230.5" cy="132" r="5"/>
		<text transform="matrix(1 0 0 1 242 135)" class="st0 st1">Петроградская</text>
	</g>
	<g>
		<circle cx="230.5" cy="152" r="5"/>
		<text transform="matrix(1 0 0 1 242 155)" class="st0 st1">Горьковская</text>
	</g>
	<g>
		<circle cx="230.5" cy="52" r="5"/>
		<text transform="matrix(1 0 0 1 242 55)" class="st0 st1">Озерки</text>
	</g>
	<g>
		<circle cx="230.5" cy="260" r="5"/>
		<text transform="matrix(1 0 0 1 129 266)" class="st0 st1">Сенная площадь</text>
	</g>
	<g>
		<circle cx="230.5" cy="183" r="5"/>
		<text transform="matrix(1 0 0 1 147 181)" class="st0 st1">Невский пр-т</text>
	</g>
</g>
<g>
	<polyline points="89.5,11.5 89.5,164 176.8,251.2 231,251.2 388.4,408.6 388.4,476 	"/>
	<g>
		<circle cx="357.5" cy="378" r="5"/>
		<text transform="matrix(1 0 0 1 369 380)" class="st0 st1">Обводный канал</text>
	</g>
	<g>
		<circle cx="388.5" cy="433" r="5"/>
		<text transform="matrix(1 0 0 1 399 436)" class="st0 st1">Волковская</text>
	</g>
	<g>
		<circle cx="388.5" cy="453" r="5"/>
		<text transform="matrix(1 0 0 1 399 456)" class="st0 st1">Бухарестская</text>
	</g>
	<g>
		<circle cx="388.5" cy="473" r="5"/>
		<text transform="matrix(1 0 0 1 399 476)" class="st0 st1">Международная</text>
	</g>
	<g>
		<circle cx="224" cy="251" r="5"/>
		<text transform="matrix(1 0 0 1 176 241)" class="st0 st1">Садовая</text>
	</g>
	<g>
		<circle cx="147" cy="221" r="5"/>
		<text transform="matrix(1 0 0 1 48 231)" class="st0 st1">Адмиралтейская</text>
	</g>
	<g>
		<circle cx="89.5" cy="11.5" r="5"/>
		<text transform="matrix(1 0 0 1 101 14.5)" class="st0 st1">Комендантский пр-т</text>
	</g>
	<g>
		<circle cx="89.5" cy="32" r="5"/>
		<text transform="matrix(1 0 0 1 101 35)" class="st0 st1">Старая деревня</text>
	</g>
	<g>
		<circle cx="89.5" cy="72.5" r="5"/>
		<text transform="matrix(1 0 0 1 101 75.5)" class="st0 st1">Крестовский остров</text>
	</g>
	<g>
		<circle cx="89.5" cy="111" r="5"/>
		<text transform="matrix(1 0 0 1 101 115)" class="st0 st1">Чкаловская</text>
	</g>
	<g>
		<circle cx="89.5" cy="132.5" r="5"/>
		<text transform="matrix(1 0 0 1 101 135.5)" class="st0 st1">Спортивная</text>
	</g>
	<g>
		<circle cx="310.5" cy="331.5" r="5"/>
		<text transform="matrix(1 0 0 1 328 333)" class="st0 st1">Звенигородская</text>
	</g>
</g>
<g>
	<polyline points="25,148 68,191 377,191 479.5,293.5 479.5,476 	"/>
	<g>
		<circle cx="445.5" cy="259.5" r="5"/>
	</g>
	<g>
		<circle cx="26" cy="149" r="5"/>
		<text transform="matrix(1 0 0 1 7 139)" class="st0 st1">Приморская</text>
	</g>
	<g>
		<circle cx="67" cy="189.5" r="5"/>
		<text transform="matrix(1 0 0 1 7 208)" class="st0 st1">Василеостровская</text>
	</g>
	<g>
		<circle cx="365" cy="191" r="5"/>
		<text transform="matrix(1 0 0 1 302 181)" class="st0 st1">Маяковская</text>
	</g>
	<g>
		<circle cx="479.5" cy="393" r="5"/>
		<text transform="matrix(1 0 0 1 491 396)" class="st0 st1">Елизаровская</text>
	</g>
	<g>
		<circle cx="479.5" cy="413" r="5"/>
		<text transform="matrix(1 0 0 1 491 416)" class="st0 st1">Ломоносовская</text>
	</g>
	<g>
		<circle cx="479.5" cy="434" r="0"/>
		<text transform="matrix(1 0 0 1 491 437)" class="st0 st1">Пролетарская</text>
	</g>
	<g>
		<circle cx="479.5" cy="454" r="5"/>
		<text transform="matrix(1 0 0 1 491 457)" class="st0 st1">Обухово</text>
	</g>
	<g>
		<circle cx="479.5" cy="475" r="5"/>
		<text transform="matrix(1 0 0 1 491 478)" class="st0 st1">Рыбацкое</text>
	</g>
	<g>
		<circle cx="230.5" cy="194" r="5"/>
		<text transform="matrix(1 0 0 1 239 207)" class="st0 st1">Гостиный двор</text>
	</g>
</g>
<g>
	<polyline points="377,11 377,191 318.5,249.5 318.5,341 192,341 109,424 109,485 	"/>
	<g>
		<circle cx="377" cy="11.5" r="5"/>
		<text transform="matrix(1 0 0 1 388 14.5)" class="st0 st1">Девяткино</text>
	</g>
	<g>
		<circle cx="377" cy="32" r="5"/>
		<text transform="matrix(1 0 0 1 388 35)" class="st0 st1">Гражданский пр-т</text>
	</g>
	<g>
		<circle cx="377" cy="52" r="5"/>
		<text transform="matrix(1 0 0 1 388 55)" class="st0 st1">Академическая</text>
	</g>
	<g>
		<circle cx="377" cy="72" r="5"/>
		<text transform="matrix(1 0 0 1 388 75)" class="st0 st1">Политехническая</text>
	</g>
	<g>
		<circle cx="377" cy="92" r="5"/>
		<text transform="matrix(1 0 0 1 388 95)" class="st0 st1">Площадь Мужества</text>
	</g>
	<g>
		<circle cx="377" cy="112" r="5"/>
		<text transform="matrix(1 0 0 1 388 115)" class="st0 st1">Лесная</text>
	</g>
	<g>
		<circle cx="377" cy="132" r="5"/>
		<text transform="matrix(1 0 0 1 388 135)" class="st0 st1">Выборгская</text>
	</g>
	<g>
		<circle cx="377" cy="152" r="5"/>
		<text transform="matrix(1 0 0 1 388 155)" class="st0 st1">Площадь Ленина</text>
	</g>
	<g>
		<circle cx="377" cy="172" r="5"/>
		<text transform="matrix(1 0 0 1 388 175)" class="st0 st1">Чернышевская</text>
	</g>
	<g>
		<circle cx="377" cy="191" r="5"/>
		<text transform="matrix(1 0 0 1 388 194)" class="st0 st1">Площадь Восстания</text>
	</g>
	<g>
		<circle cx="326" cy="241" r="5"/>
		<text transform="matrix(1 0 0 1 339 242)" class="st0 st1">Владимирская</text>
	</g>
	<g>
		<circle cx="319" cy="340" r="5"/>
		<text transform="matrix(1 0 0 1 251 355)" class="st0 st1">Пушкинская</text>
	</g>
	<g>
		<circle cx="230.5" cy="341" r="5"/>
		<text transform="matrix(1 0 0 1 75 332)" class="st0 st1">Технологический институт</text>
	</g>
	<g>
		<circle cx="164" cy="368" r="5"/>
		<text transform="matrix(1 0 0 1 86 369)" class="st0 st1">Балтийская</text>
	</g>
	<g>
		<circle cx="146" cy="386" r="5"/>
		<text transform="matrix(1 0 0 1 82 386)" class="st0 st1">Нарвская</text>
	</g>
	<g>
		<circle cx="109" cy="424" r="5"/>
		<text transform="matrix(1 0 0 1 0 427)" class="st0 st1">Кировский завод</text>
	</g>
	<g>
		<circle cx="109" cy="444" r="5"/>
		<text transform="matrix(1 0 0 1 52 447)" class="st0 st1">Автово</text>
	</g>
	<g>
		<circle cx="109" cy="464" r="5"/>
		<text transform="matrix(1 0 0 1 7 467)" class="st0 st1">Ленинский пр-т</text>
	</g>
	<g>
		<circle cx="109" cy="484" r="5"/>
		<text transform="matrix(1 0 0 1 7 487)" class="st0 st1">Пр-т Ветеранов</text>
	</g>
</g>
<g>
	<polyline points="236,251 492,251 516,275 516,360 	"/>
	<g>
		<circle cx="516" cy="359" r="5"/>
		<text transform="matrix(1 0 0 1 529 362)" class="st0 st1">Ул. Дыбенко</text>
	</g>
	<g>
		<circle cx="516" cy="338" r="5"/>
		<text transform="matrix(1 0 0 1 529 341)" class="st0 st1">Пр-т Большевиков</text>
	</g>
	<g>
		<circle cx="516" cy="318" r="5"/>
		<text transform="matrix(1 0 0 1 529 321)" class="st0 st1">Ладожская</text>
	</g>
	<g>
		<circle cx="516" cy="298" r="5"/>
		<text transform="matrix(1 0 0 1 529 301)" class="st0 st1">Новочеркасская</text>
	</g>
	<g>
		<circle cx="437" cy="251" r="5"/>
		<text transform="matrix(1 0 0 1 439 243)" class="st0 st1">Площадь Александра Невского</text>
	</g>
	<g>
		<circle cx="382" cy="251" r="5"/>
		<text transform="matrix(1 0 0 1 342 266)" class="st0 st1">Лиговский пр-т</text>
	</g>
	<g>
		<circle cx="236" cy="251" r="5"/>
		<text transform="matrix(1 0 0 1 241 241)" class="st0 st1">Спасская</text>
	</g>
	<g>
		<circle cx="319" cy="251" r="5"/>
		<text transform="matrix(1 0 0 1 252 265)" class="st0 st1">Достоевская</text>
	</g>
</g>
<g>
	<polyline points="224,251 236,251 231,260 224,251 	"/>
	<line x1="365" y1="191" x2="377" y2="191"/>
	<line x1="230.5" y1="184" x2="230.5" y2="194"/>
	<line x1="310" y1="331" x2="319" y2="340"/>
	<line x1="326" y1="241" x2="319" y2="251"/>
	<line x1="437" y1="251" x2="446" y2="260"/>
	<line x1="230.5" y1="329" x2="230.5" y2="341"/>
</g>
</svg>
