<?xml version="1.0" encoding="iso-8859-1"?>
<!-- Generator: Adobe Illustrator 19.0.0, SVG Export Plug-In . SVG Version: 6.00 Build 0)  -->
<svg xmlns="http://www.w3.org/2000/svg" xmlns:xlink="http://www.w3.org/1999/xlink" version="1.1" id="Layer_1" x="0px" y="0px" viewBox="0 0 512.007 512.007" style="enable-background:new 0 0 512.007 512.007;" xml:space="preserve" width="512px" height="512px">
<g>
	<g>
		<g>
			<path d="M187.737,358.407c12.237,0,20.872-7.646,24.047-12.16c2.679-3.814,1.766-9.011-2.005-11.75     c-3.789-2.748-9.088-1.894-11.887,1.835c-0.154,0.205-3.831,5.009-10.155,5.009c-6.221,0-9.882-4.642-10.146-4.992     c-2.731-3.78-7.996-4.676-11.827-1.988c-3.857,2.714-4.787,8.038-2.074,11.887C166.864,350.761,175.5,358.407,187.737,358.407z" fill="#FFFFFF"/>
			<path d="M179.204,119.474c-32.939,0-59.733,26.795-59.733,59.733s26.795,59.733,59.733,59.733     c32.939,0,59.733-26.795,59.733-59.733S212.142,119.474,179.204,119.474z M179.204,221.874c-23.526,0-42.667-19.14-42.667-42.667     c0-23.526,19.14-42.667,42.667-42.667c23.526,0,42.667,19.14,42.667,42.667C221.87,202.734,202.73,221.874,179.204,221.874z" fill="#FFFFFF"/>
			<path d="M266.158,336.331c-0.154,0.205-3.831,5.009-10.155,5.009c-6.221,0-9.882-4.642-10.146-4.992     c-2.731-3.78-7.996-4.676-11.827-1.988c-3.857,2.714-4.787,8.038-2.074,11.887c3.174,4.514,11.81,12.16,24.047,12.16     s20.872-7.646,24.047-12.16c2.679-3.814,1.766-9.011-2.005-11.75C274.265,331.749,268.957,332.602,266.158,336.331z" fill="#FFFFFF"/>
			<path d="M76.889,212.129c-0.666,4.668,2.577,8.994,7.236,9.66c4.651,0.631,8.986-2.577,9.66-7.236     c8.755-61.295-8.329-104.951-9.335-107.401c-0.154-0.307-13.329-27.682-15.787-81.246l54.221,40.661     c2.236,1.681,5.146,2.15,7.808,1.271c0.503-0.171,50.987-16.631,125.312-16.631s124.8,16.461,125.312,16.631     c2.662,0.879,5.572,0.41,7.808-1.271l54.221-40.661c-2.458,53.564-15.667,80.998-16.068,81.86     c-0.725,1.835-17.809,45.491-9.054,106.786c0.606,4.25,4.258,7.322,8.44,7.322c0.401,0,0.802-0.026,1.22-0.085     c4.659-0.666,7.902-4.992,7.236-9.66c-8.055-56.354,7.757-97.374,7.714-97.374c0.734-1.468,17.971-36.727,17.971-106.214     c0-3.234-1.826-6.187-4.719-7.637c-2.901-1.451-6.349-1.135-8.934,0.811l-64.794,48.597     c-14.08-4.122-60.868-16.171-126.353-16.171S143.731,46.19,129.651,50.311L64.857,1.714c-2.594-1.946-6.05-2.261-8.934-0.811     c-2.893,1.451-4.719,4.403-4.719,7.637c0,69.487,17.229,104.747,17.672,105.574C69.038,114.516,85.004,155.314,76.889,212.129z" fill="#FFFFFF"/>
			<path d="M294.873,240.374c-3.934-2.628-9.225-1.562-11.836,2.364l-27.034,40.55l-27.034-40.55     c-2.62-3.925-7.919-4.992-11.836-2.364c-3.917,2.611-4.975,7.91-2.364,11.836l34.133,51.2c1.579,2.372,4.241,3.797,7.1,3.797     c2.85,0,5.513-1.425,7.1-3.797l34.133-51.2C299.848,248.285,298.79,242.985,294.873,240.374z" fill="#FFFFFF"/>
			<path d="M179.204,162.141c-9.412,0-17.067,7.654-17.067,17.067s7.654,17.067,17.067,17.067c9.412,0,17.067-7.654,17.067-17.067     S188.616,162.141,179.204,162.141z" fill="#FFFFFF"/>
			<path d="M314.184,388.914c2.679-3.814,1.766-9.011-2.005-11.75c-3.789-2.748-9.088-1.886-11.887,1.835     c-0.154,0.205-3.831,5.009-10.155,5.009c-6.221,0-9.882-4.642-10.146-4.992c-2.731-3.78-8.004-4.676-11.827-1.988     c-3.857,2.705-4.787,8.03-2.074,11.887c3.174,4.514,11.81,12.16,24.047,12.16C302.374,401.074,311.009,393.428,314.184,388.914z" fill="#FFFFFF"/>
			<path d="M392.537,179.207c0-32.939-26.795-59.733-59.733-59.733s-59.733,26.795-59.733,59.733s26.795,59.733,59.733,59.733     S392.537,212.146,392.537,179.207z M332.804,221.874c-23.526,0-42.667-19.14-42.667-42.667c0-23.526,19.14-42.667,42.667-42.667     c23.526,0,42.667,19.14,42.667,42.667C375.47,202.734,356.33,221.874,332.804,221.874z" fill="#FFFFFF"/>
			<path d="M433.531,239.111c-1.109,0.213-27.264,5.743-46.421,35.123c-21.692,33.289-25.566,82.321-11.511,145.749     c1.015,4.608,5.598,7.509,10.172,6.494c4.608-1.024,7.509-5.581,6.494-10.18c-12.766-57.617-9.711-103.356,8.832-132.258     c9.557-14.891,21.043-22.161,28.382-25.54c17.348,65.562,6.562,141.312-27.255,187.059     c-10.206,13.798-26.786,29.892-48.785,31.915c-5.973-9.933-16.751-16.666-29.167-16.666c-12.578,0-23.467,6.912-29.38,17.067     h-77.773c-5.922-10.155-16.802-17.067-29.38-17.067c-12.407,0-23.177,6.724-29.158,16.649     c-22.033-2.125-38.639-18.261-48.862-32.094c-33.801-45.773-44.561-121.438-27.196-186.863     c7.253,3.337,18.577,10.487,28.075,25.062c18.816,28.885,21.956,74.778,9.079,132.727c-1.024,4.599,1.877,9.156,6.477,10.18     c4.591,1.015,9.156-1.877,10.18-6.477c14.097-63.428,10.249-112.461-11.435-145.749c-19.14-29.389-45.312-34.918-46.421-35.132     c-4.292-0.845-8.542,1.664-9.83,5.854c-22.187,72.115-10.94,158.686,27.349,210.526c16.572,22.451,36.361,35.669,57.677,38.733     c0,0.247-0.068,0.469-0.068,0.717c0,9.412,7.654,17.067,17.067,17.067h34.133c9.412,0,17.067-7.654,17.067-17.067h68.267     c0,9.412,7.654,17.067,17.067,17.067h34.133c9.412,0,17.067-7.654,17.067-17.067c0-0.23-0.06-0.444-0.068-0.666     c21.291-2.995,41.045-16.171,57.609-38.571c38.306-51.814,49.579-138.47,27.418-210.731     C442.073,240.784,437.806,238.215,433.531,239.111z M170.67,494.941c0-9.412,7.654-17.067,17.067-17.067     c9.412,0,17.067,7.654,17.075,17.067H170.67z M307.204,494.941c0-9.412,7.654-17.067,17.067-17.067s17.067,7.654,17.075,17.067     H307.204z" fill="#FFFFFF"/>
			<path d="M213.337,401.074c12.237,0,20.873-7.646,24.047-12.16c2.68-3.814,1.766-9.011-2.005-11.75     c-3.789-2.748-9.088-1.886-11.887,1.835c-0.154,0.205-3.831,5.009-10.155,5.009c-6.221,0-9.882-4.642-10.146-4.992     c-2.731-3.78-7.996-4.676-11.827-1.988c-3.857,2.705-4.787,8.03-2.074,11.887C192.464,393.428,201.1,401.074,213.337,401.074z" fill="#FFFFFF"/>
			<path d="M332.804,162.141c-9.412,0-17.067,7.654-17.067,17.067s7.654,17.067,17.067,17.067s17.067-7.654,17.067-17.067     S342.216,162.141,332.804,162.141z" fill="#FFFFFF"/>
			<path d="M256.004,443.741c12.237,0,20.872-7.646,24.047-12.16c2.679-3.814,1.766-9.011-2.005-11.75     c-3.78-2.756-9.088-1.894-11.887,1.835c-0.154,0.205-3.831,5.009-10.155,5.009c-6.221,0-9.882-4.642-10.146-4.992     c-2.731-3.78-7.996-4.676-11.827-1.988c-3.857,2.714-4.787,8.03-2.074,11.887C235.131,436.095,243.767,443.741,256.004,443.741z" fill="#FFFFFF"/>
			<path d="M348.317,346.247c2.679-3.814,1.766-9.011-2.005-11.75c-3.78-2.748-9.079-1.894-11.887,1.835     c-0.154,0.205-3.831,5.009-10.155,5.009c-6.221,0-9.882-4.642-10.146-4.992c-2.731-3.78-8.004-4.676-11.827-1.988     c-3.857,2.714-4.787,8.038-2.074,11.887c3.174,4.514,11.81,12.16,24.047,12.16S345.143,350.761,348.317,346.247z" fill="#FFFFFF"/>
		</g>
	</g>
</g>
<g>
</g>
<g>
</g>
<g>
</g>
<g>
</g>
<g>
</g>
<g>
</g>
<g>
</g>
<g>
</g>
<g>
</g>
<g>
</g>
<g>
</g>
<g>
</g>
<g>
</g>
<g>
</g>
<g>
</g>
</svg>
